<mxfile host="app.diagrams.net" modified="2023-05-22T19:16:45.948Z" agent="Mozilla/5.0 (X11; Ubuntu; Linux x86_64; rv:109.0) Gecko/20100101 Firefox/113.0" etag="c_VAo2RhZFwpImFidBNP" version="21.3.2" type="google">
  <diagram id="C5RBs43oDa-KdzZeNtuy" name="Page-1">
    <mxGraphModel grid="1" page="1" gridSize="10" guides="1" tooltips="1" connect="1" arrows="1" fold="1" pageScale="1" pageWidth="827" pageHeight="1169" math="0" shadow="0">
      <root>
        <mxCell id="WIyWlLk6GJQsqaUBKTNV-0" />
        <mxCell id="WIyWlLk6GJQsqaUBKTNV-1" parent="WIyWlLk6GJQsqaUBKTNV-0" />
        <mxCell id="Cfh2bIXvD_0wuGt__YJK-0" style="edgeStyle=orthogonalEdgeStyle;rounded=0;orthogonalLoop=1;jettySize=auto;html=1;endArrow=none;endFill=0;" edge="1" parent="WIyWlLk6GJQsqaUBKTNV-1" source="Cfh2bIXvD_0wuGt__YJK-2" target="Cfh2bIXvD_0wuGt__YJK-10">
          <mxGeometry relative="1" as="geometry">
            <Array as="points">
              <mxPoint x="65" y="230" />
            </Array>
          </mxGeometry>
        </mxCell>
        <mxCell id="Cfh2bIXvD_0wuGt__YJK-1" style="edgeStyle=orthogonalEdgeStyle;rounded=0;orthogonalLoop=1;jettySize=auto;html=1;entryX=0;entryY=0.5;entryDx=0;entryDy=0;endArrow=none;endFill=0;" edge="1" parent="WIyWlLk6GJQsqaUBKTNV-1" target="Cfh2bIXvD_0wuGt__YJK-14">
          <mxGeometry relative="1" as="geometry">
            <Array as="points">
              <mxPoint x="160" y="392" />
              <mxPoint x="160" y="392" />
            </Array>
            <mxPoint x="65" y="360" as="sourcePoint" />
          </mxGeometry>
        </mxCell>
        <mxCell id="Cfh2bIXvD_0wuGt__YJK-2" value="User" style="shape=umlActor;verticalLabelPosition=bottom;verticalAlign=top;html=1;" vertex="1" parent="WIyWlLk6GJQsqaUBKTNV-1">
          <mxGeometry x="50" y="280" width="30" height="60" as="geometry" />
        </mxCell>
        <mxCell id="Cfh2bIXvD_0wuGt__YJK-3" value="User Subsystem" style="shape=umlFrame;whiteSpace=wrap;html=1;pointerEvents=0;width=170;height=30;" vertex="1" parent="WIyWlLk6GJQsqaUBKTNV-1">
          <mxGeometry x="210" y="120" width="350" height="370" as="geometry" />
        </mxCell>
        <mxCell id="Cfh2bIXvD_0wuGt__YJK-4" style="edgeStyle=orthogonalEdgeStyle;rounded=0;orthogonalLoop=1;jettySize=auto;html=1;entryX=1;entryY=0.5;entryDx=0;entryDy=0;dashed=1;" edge="1" parent="WIyWlLk6GJQsqaUBKTNV-1" source="Cfh2bIXvD_0wuGt__YJK-5" target="Cfh2bIXvD_0wuGt__YJK-10">
          <mxGeometry relative="1" as="geometry">
            <Array as="points">
              <mxPoint x="350" y="178" />
              <mxPoint x="350" y="230" />
            </Array>
          </mxGeometry>
        </mxCell>
        <mxCell id="Cfh2bIXvD_0wuGt__YJK-5" value="Sign in" style="ellipse;whiteSpace=wrap;html=1;" vertex="1" parent="WIyWlLk6GJQsqaUBKTNV-1">
          <mxGeometry x="460" y="160" width="70" height="40" as="geometry" />
        </mxCell>
        <mxCell id="Cfh2bIXvD_0wuGt__YJK-6" style="edgeStyle=orthogonalEdgeStyle;rounded=0;orthogonalLoop=1;jettySize=auto;html=1;entryX=1;entryY=0.5;entryDx=0;entryDy=0;dashed=1;" edge="1" parent="WIyWlLk6GJQsqaUBKTNV-1" source="Cfh2bIXvD_0wuGt__YJK-7" target="Cfh2bIXvD_0wuGt__YJK-10">
          <mxGeometry relative="1" as="geometry">
            <Array as="points">
              <mxPoint x="360" y="230" />
              <mxPoint x="360" y="230" />
            </Array>
          </mxGeometry>
        </mxCell>
        <mxCell id="Cfh2bIXvD_0wuGt__YJK-7" value="Register" style="ellipse;whiteSpace=wrap;html=1;" vertex="1" parent="WIyWlLk6GJQsqaUBKTNV-1">
          <mxGeometry x="460" y="210" width="70" height="40" as="geometry" />
        </mxCell>
        <mxCell id="Cfh2bIXvD_0wuGt__YJK-8" style="edgeStyle=orthogonalEdgeStyle;rounded=0;orthogonalLoop=1;jettySize=auto;html=1;entryX=1;entryY=0.5;entryDx=0;entryDy=0;dashed=1;" edge="1" parent="WIyWlLk6GJQsqaUBKTNV-1" source="Cfh2bIXvD_0wuGt__YJK-9" target="Cfh2bIXvD_0wuGt__YJK-10">
          <mxGeometry relative="1" as="geometry">
            <Array as="points">
              <mxPoint x="350" y="280" />
              <mxPoint x="350" y="230" />
            </Array>
          </mxGeometry>
        </mxCell>
        <mxCell id="Cfh2bIXvD_0wuGt__YJK-9" value="Log out" style="ellipse;whiteSpace=wrap;html=1;" vertex="1" parent="WIyWlLk6GJQsqaUBKTNV-1">
          <mxGeometry x="460" y="260" width="70" height="40" as="geometry" />
        </mxCell>
        <mxCell id="Cfh2bIXvD_0wuGt__YJK-10" value="Authentication" style="ellipse;whiteSpace=wrap;html=1;" vertex="1" parent="WIyWlLk6GJQsqaUBKTNV-1">
          <mxGeometry x="230" y="210" width="80" height="40" as="geometry" />
        </mxCell>
        <mxCell id="Cfh2bIXvD_0wuGt__YJK-11" value="&amp;lt;&amp;lt;extends&amp;gt;&amp;gt;" style="text;html=1;align=center;verticalAlign=middle;resizable=0;points=[];autosize=1;strokeColor=none;fillColor=none;" vertex="1" parent="WIyWlLk6GJQsqaUBKTNV-1">
          <mxGeometry x="350" y="158" width="90" height="30" as="geometry" />
        </mxCell>
        <mxCell id="Cfh2bIXvD_0wuGt__YJK-12" value="&amp;lt;&amp;lt;extends&amp;gt;&amp;gt;" style="text;html=1;align=center;verticalAlign=middle;resizable=0;points=[];autosize=1;strokeColor=none;fillColor=none;" vertex="1" parent="WIyWlLk6GJQsqaUBKTNV-1">
          <mxGeometry x="350" y="210" width="90" height="30" as="geometry" />
        </mxCell>
        <mxCell id="Cfh2bIXvD_0wuGt__YJK-13" value="&amp;lt;&amp;lt;extends&amp;gt;&amp;gt;" style="text;html=1;align=center;verticalAlign=middle;resizable=0;points=[];autosize=1;strokeColor=none;fillColor=none;" vertex="1" parent="WIyWlLk6GJQsqaUBKTNV-1">
          <mxGeometry x="350" y="260" width="90" height="30" as="geometry" />
        </mxCell>
        <mxCell id="Cfh2bIXvD_0wuGt__YJK-14" value="Social Interaction" style="ellipse;whiteSpace=wrap;html=1;" vertex="1" parent="WIyWlLk6GJQsqaUBKTNV-1">
          <mxGeometry x="220" y="372" width="80" height="40" as="geometry" />
        </mxCell>
        <mxCell id="Cfh2bIXvD_0wuGt__YJK-15" style="edgeStyle=orthogonalEdgeStyle;rounded=0;orthogonalLoop=1;jettySize=auto;html=1;entryX=1;entryY=0.5;entryDx=0;entryDy=0;dashed=1;" edge="1" parent="WIyWlLk6GJQsqaUBKTNV-1" source="Cfh2bIXvD_0wuGt__YJK-16" target="Cfh2bIXvD_0wuGt__YJK-14">
          <mxGeometry relative="1" as="geometry">
            <Array as="points">
              <mxPoint x="350" y="342" />
              <mxPoint x="350" y="392" />
            </Array>
          </mxGeometry>
        </mxCell>
        <mxCell id="Cfh2bIXvD_0wuGt__YJK-16" value="Upload graphs" style="ellipse;whiteSpace=wrap;html=1;" vertex="1" parent="WIyWlLk6GJQsqaUBKTNV-1">
          <mxGeometry x="460" y="322" width="70" height="40" as="geometry" />
        </mxCell>
        <mxCell id="Cfh2bIXvD_0wuGt__YJK-17" style="edgeStyle=orthogonalEdgeStyle;rounded=0;orthogonalLoop=1;jettySize=auto;html=1;entryX=1;entryY=0.5;entryDx=0;entryDy=0;dashed=1;" edge="1" parent="WIyWlLk6GJQsqaUBKTNV-1" source="Cfh2bIXvD_0wuGt__YJK-18" target="Cfh2bIXvD_0wuGt__YJK-14">
          <mxGeometry relative="1" as="geometry" />
        </mxCell>
        <mxCell id="Cfh2bIXvD_0wuGt__YJK-18" value="Upload images" style="ellipse;whiteSpace=wrap;html=1;" vertex="1" parent="WIyWlLk6GJQsqaUBKTNV-1">
          <mxGeometry x="460" y="372" width="70" height="40" as="geometry" />
        </mxCell>
        <mxCell id="Cfh2bIXvD_0wuGt__YJK-19" style="edgeStyle=orthogonalEdgeStyle;rounded=0;orthogonalLoop=1;jettySize=auto;html=1;entryX=1;entryY=0.5;entryDx=0;entryDy=0;dashed=1;" edge="1" parent="WIyWlLk6GJQsqaUBKTNV-1" source="Cfh2bIXvD_0wuGt__YJK-20" target="Cfh2bIXvD_0wuGt__YJK-14">
          <mxGeometry relative="1" as="geometry">
            <Array as="points">
              <mxPoint x="350" y="441" />
              <mxPoint x="350" y="392" />
            </Array>
          </mxGeometry>
        </mxCell>
        <mxCell id="Cfh2bIXvD_0wuGt__YJK-20" value="Download graphs" style="ellipse;whiteSpace=wrap;html=1;" vertex="1" parent="WIyWlLk6GJQsqaUBKTNV-1">
          <mxGeometry x="460" y="422" width="70" height="38" as="geometry" />
        </mxCell>
        <mxCell id="Cfh2bIXvD_0wuGt__YJK-21" value="&amp;lt;&amp;lt;extends&amp;gt;&amp;gt;" style="text;html=1;align=center;verticalAlign=middle;resizable=0;points=[];autosize=1;strokeColor=none;fillColor=none;" vertex="1" parent="WIyWlLk6GJQsqaUBKTNV-1">
          <mxGeometry x="350" y="322" width="90" height="30" as="geometry" />
        </mxCell>
        <mxCell id="Cfh2bIXvD_0wuGt__YJK-22" value="&amp;lt;&amp;lt;extends&amp;gt;&amp;gt;" style="text;html=1;align=center;verticalAlign=middle;resizable=0;points=[];autosize=1;strokeColor=none;fillColor=none;" vertex="1" parent="WIyWlLk6GJQsqaUBKTNV-1">
          <mxGeometry x="350" y="372" width="90" height="30" as="geometry" />
        </mxCell>
        <mxCell id="Cfh2bIXvD_0wuGt__YJK-23" value="&amp;lt;&amp;lt;extends&amp;gt;&amp;gt;" style="text;html=1;align=center;verticalAlign=middle;resizable=0;points=[];autosize=1;strokeColor=none;fillColor=none;" vertex="1" parent="WIyWlLk6GJQsqaUBKTNV-1">
          <mxGeometry x="350" y="420" width="90" height="30" as="geometry" />
        </mxCell>
      </root>
    </mxGraphModel>
  </diagram>
</mxfile>
